<mxfile host="app.diagrams.net" modified="2024-06-18T21:21:35.334Z" agent="Mozilla/5.0 (Macintosh; Intel Mac OS X 10.15; rv:128.0) Gecko/20100101 Firefox/128.0" etag="KRaK8KBrmb8JnSSyvbSO" version="24.5.5" type="github">
  <diagram name="Page-1" id="9GggtVxkDS80HLWH1yRP">
    <mxGraphModel dx="1434" dy="794" grid="1" gridSize="10" guides="1" tooltips="1" connect="1" arrows="1" fold="1" page="1" pageScale="1" pageWidth="850" pageHeight="1100" math="0" shadow="0">
      <root>
        <mxCell id="0" />
        <mxCell id="1" parent="0" />
        <mxCell id="a9jBoOvEh7F10hLC2b1X-1" value="Worker" style="shape=umlActor;verticalLabelPosition=bottom;verticalAlign=top;html=1;outlineConnect=0;" vertex="1" parent="1">
          <mxGeometry x="165" y="230" width="30" height="60" as="geometry" />
        </mxCell>
        <mxCell id="a9jBoOvEh7F10hLC2b1X-2" value="&lt;div&gt;Employer&lt;/div&gt;" style="shape=umlActor;verticalLabelPosition=bottom;verticalAlign=top;html=1;outlineConnect=0;" vertex="1" parent="1">
          <mxGeometry x="165" y="470" width="30" height="60" as="geometry" />
        </mxCell>
        <mxCell id="a9jBoOvEh7F10hLC2b1X-4" value="" style="rounded=1;whiteSpace=wrap;html=1;" vertex="1" parent="1">
          <mxGeometry x="240" y="160" width="400" height="200" as="geometry" />
        </mxCell>
        <mxCell id="a9jBoOvEh7F10hLC2b1X-8" value="" style="rounded=1;whiteSpace=wrap;html=1;" vertex="1" parent="1">
          <mxGeometry x="240" y="400" width="400" height="200" as="geometry" />
        </mxCell>
      </root>
    </mxGraphModel>
  </diagram>
</mxfile>
